<svg width="480" height="284" viewBox="0 0 480 284" fill="none" xmlns="http://www.w3.org/2000/svg">
<mask id="mask0_1243_19" style="mask-type:alpha" maskUnits="userSpaceOnUse" x="0" y="0" width="480" height="284">
<rect width="480" height="284" fill="#D9D9D9"/>
</mask>
<g mask="url(#mask0_1243_19)">
<path fill-rule="evenodd" clip-rule="evenodd" d="M67.749 6.31C57.794 18.829 52.046 32.739 48.886 51.963C47.068 63.02 47.538 87.601 49.798 99.619L51.114 106.619L46.828 111.454C34.706 125.128 32.5 139.68 39.652 158.794L41.773 164.464L44.642 158.143C48.152 150.41 53.94 142.64 58.118 140.051C60.787 138.397 63.133 138.119 74.416 138.119H87.595L92.621 143.144C95.918 146.441 98.961 150.968 101.47 156.306L105.295 164.442L107.407 160.302C110.684 153.877 112.765 143.488 112.21 136.315C111.604 128.496 107.298 119.336 100.864 112.179L96.269 107.069L97.848 96.344C100.353 79.326 100.73 71.361 99.566 60.099C97.09 36.141 88.087 14.5 75.735 2.81L72.767 0L67.749 6.31ZM67.263 47.684C62.015 50.532 60.099 57.51 63.017 63.152C67.062 70.975 79.938 70.975 83.983 63.152C89.395 52.686 77.804 41.964 67.263 47.684ZM26.741 111.869L27 163.619L31.25 163.926C33.587 164.096 35.5 164.054 35.5 163.833C35.5 163.613 34.606 160.834 33.513 157.658C30.845 149.902 29.551 138.684 30.577 132.195C31.643 125.449 36.103 115.993 41.166 109.741L45.116 104.862L43.712 96.741C42.94 92.274 42.239 82.207 42.154 74.369L42 60.12L34.241 60.119H26.482L26.741 111.869ZM105.173 74.869C104.833 82.981 104.431 90.519 104.278 91.619C104.006 93.576 104.649 93.625 134.25 93.884L164.5 94.148V77.134V60.119H135.145H105.791L105.173 74.869ZM300.5 77.619V89.119H314.5H328.5V77.619V66.119H314.5H300.5V77.619ZM429.5 78.619V90.119H443.5H457.5V103.619V117.119H468.5H479.5V103.541V89.963L468.75 90.232L458 90.501L457.718 78.81L457.437 67.119H443.468H429.5V78.619ZM278.5 103.119V116.119H289.5H300.5V103.119V90.119H289.5H278.5V103.119ZM131.5 175.341V233.685L147.137 233.989C155.737 234.156 172.612 233.967 184.637 233.57L206.5 232.846V221.483V210.119H179.968H153.437L153.718 198.369L154 186.619L174.75 186.349L195.5 186.078V174.599V163.119H174.5H153.5V151.619V140.119H180.033H206.566L206.283 128.869L206 117.619L168.75 117.308L131.5 116.997V175.341ZM215.177 117.775C214.805 118.148 214.5 123.327 214.5 129.286V140.119L221.75 140.128C225.738 140.132 231.358 140.42 234.24 140.766L239.48 141.395L239.74 187.507L240 233.619L250.74 233.903L261.48 234.186L261.74 187.403L262 140.619L274.282 140.338L286.565 140.057L286.282 128.838L286 117.619L250.927 117.359C231.637 117.216 215.549 117.403 215.177 117.775ZM300.499 175.369V233.619H311.481H322.463L322.731 210.119L323 186.619H332.5H342L342.297 192.282L342.595 197.944L347.547 198.626L352.5 199.307V216.082V232.857L356.25 233.477C358.313 233.818 363.262 234.102 367.25 234.108L374.5 234.119V216.119V198.119H369.5H364.5V192.119V186.119H358.5H352.5V175.119V164.119L348.25 163.967C345.913 163.883 343.55 163.71 343 163.582C342.45 163.454 337.613 163.298 332.25 163.234L322.5 163.119V151.619V140.119H337.468H352.437L352.718 151.869L353 163.619L363.75 163.903L374.5 164.187V152.153V140.119H363.5H352.5V128.619V117.119H326.5H300.5L300.499 175.369ZM405.283 128.369L405 139.619H394H383L382.737 175.369L382.475 211.119H393.987H405.5V222.619V234.119H421H436.5V222.619V211.119H448.013H459.525L459.263 175.521L459 139.924L448 139.771L437 139.619L436.717 128.369L436.434 117.119H421H405.566L405.283 128.369ZM405.5 175.619V211.119H421H436.5V175.619V140.119H421H405.5V175.619ZM62.115 143.584C61.227 144.939 60.5 146.514 60.5 147.084C60.5 147.744 65.205 148.119 73.5 148.119C80.65 148.119 86.5 147.961 86.5 147.768C86.5 147.575 86.006 146 85.402 144.268L84.304 141.119H74.017C64.187 141.119 63.658 141.228 62.115 143.584ZM54.5 161.119V169.119H36H17.5V174.619V180.119H70.052H122.605L122.302 174.869L122 169.619L107.25 169.342L92.5 169.066V161.092V153.119H73.5H54.5V161.119ZM26.5 211.119V236.119H13.579H0.658L0.329 243.621L0 251.124L99.25 251.121C153.838 251.12 198.838 251.119 199.25 251.119C199.662 251.119 200 247.857 200 243.869V236.619L155.75 236.359L111.5 236.098V211.109V186.119H108H104.5V192.14V198.161L84.75 197.89L65 197.619L64.7 191.869L64.4 186.119H45.45H26.5V211.119ZM64.953 205.381C64.644 206.185 64.529 209.493 64.696 212.731L65 218.619L84.75 218.89L104.5 219.161V212.249C104.5 203.898 106.248 204.546 82.757 204.184C68.378 203.962 65.421 204.161 64.953 205.381ZM64.5 231.119V236.119H84.5H104.5V231.119V226.119H84.5H64.5V231.119ZM271.5 247.002C271.5 262.076 270.568 261.083 284.75 261.105L293.5 261.119V271.566V282.014L307.502 282.316L321.503 282.619L321.502 271.369L321.5 260.119H307.5H293.5V247.119V234.119H282.5H271.5V247.002ZM457.5 246.969C457.5 262.274 458.867 261.085 441.25 261.105L429.5 261.119V272.119V283.119H443.5H457.5V272.119V261.119H468.529H479.558L479.279 247.869L479 234.619L468.25 234.335L457.5 234.051V246.969ZM12.167 294.786C11.8 295.152 11.5 301.677 11.5 309.286V323.119H14C16.387 323.119 16.5 322.849 16.5 317.167V311.214L22.74 310.917C27.746 310.678 29.046 310.273 29.313 308.869C29.603 307.346 28.794 307.119 23.073 307.119H16.5V302.619V298.119H23.5C29.833 298.119 30.5 297.929 30.5 296.119C30.5 294.27 29.833 294.119 21.667 294.119C16.808 294.119 12.533 294.419 12.167 294.786ZM34.902 295.513C34.577 296.361 34.466 301.538 34.655 307.017C34.939 315.22 35.37 317.476 37.096 319.799C40.954 324.99 49.314 325.396 54.086 320.624C56.372 318.338 56.5 317.569 56.5 306.091C56.5 295.089 56.339 294.003 54.75 294.306C53.242 294.594 52.931 296.208 52.5 305.963C51.953 318.343 51.071 320.119 45.464 320.119C40.648 320.119 39.601 317.657 39.286 305.592C39.038 296.085 38.769 294.598 37.247 294.307C36.283 294.122 35.228 294.665 34.902 295.513ZM61.199 294.753C59.19 296.762 60.723 298.119 65 298.119H69.5V310.619C69.5 322.452 69.607 323.119 71.5 323.119C73.393 323.119 73.5 322.452 73.5 310.619V298.119H78.073C81.89 298.119 82.591 297.829 82.312 296.369C82.023 294.864 80.571 294.579 71.938 294.336C66.416 294.181 61.584 294.368 61.199 294.753ZM86.5 305.169C86.5 317.708 87.629 321.102 92.469 323.106C96.159 324.635 102.024 323.86 104.633 321.499C107.541 318.867 108.653 313.46 108.312 303.619C108.027 295.39 107.829 294.619 106 294.619C104.139 294.619 103.98 295.381 103.714 305.58C103.495 313.981 103.05 316.959 101.809 318.33C99.657 320.708 94.983 320.602 92.5 318.119C90.742 316.361 90.5 314.786 90.5 305.119C90.5 294.786 90.379 294.119 88.5 294.119C86.621 294.119 86.5 294.786 86.5 305.169ZM114.5 308.513C114.5 322.328 114.606 323.119 116.45 323.119C118.123 323.119 118.443 322.301 118.7 317.369C118.996 311.703 119.047 311.614 122.203 311.309C125.172 311.022 125.6 311.387 128.071 316.309C131.584 323.306 132.219 324.005 134.515 323.405C136.345 322.926 136.276 322.573 133.311 317.221L130.166 311.544L132.833 308.877C136.224 305.486 136.323 301.188 133.097 297.437C130.899 294.882 130 294.611 122.597 294.275L114.5 293.907V308.513ZM141.302 308.584L141 323.122L150.75 323.121C158.749 323.119 160.5 322.85 160.5 321.619C160.5 320.419 159 320.119 153 320.119H145.5V315.027V309.935L151.735 310.277C157.04 310.568 158.021 310.358 158.309 308.869C158.603 307.346 157.796 307.119 152.073 307.119H145.5V302.619V298.119H153.073C159.747 298.119 160.607 297.911 160.312 296.369C160.027 294.879 158.61 294.576 150.79 294.332L141.604 294.045L141.302 308.584ZM175.5 308.513C175.5 322.452 175.591 323.119 177.5 323.119C179.278 323.119 179.5 322.452 179.5 317.119V311.119H182.986C186.243 311.119 186.67 311.513 189.5 317.119C192.008 322.087 192.967 323.119 195.073 323.119H197.617L194.484 317.24L191.35 311.36L193.925 308.785C197.222 305.488 197.288 301.147 194.097 297.437C191.899 294.882 191 294.611 183.597 294.275L175.5 293.907V308.513ZM202.5 308.619V323.119H212C219.778 323.119 221.5 322.847 221.5 321.619C221.5 320.418 219.994 320.119 213.945 320.119H206.39L206.695 315.369L207 310.619L212.99 310.598C217.862 310.581 219.043 310.254 219.314 308.848C219.602 307.351 218.765 307.119 213.073 307.119H206.5V302.619V298.119H214C220.833 298.119 221.5 297.941 221.5 296.119C221.5 294.259 220.833 294.119 212 294.119H202.5V308.619ZM224.5 296.119C224.5 297.777 225.167 298.119 228.404 298.119H232.308L233.023 308.61C233.416 314.381 233.501 320.006 233.212 321.11C232.794 322.711 233.176 323.119 235.094 323.119H237.5V310.619V298.119H242C245.833 298.119 246.5 297.823 246.5 296.119C246.5 294.24 245.833 294.119 235.5 294.119C225.167 294.119 224.5 294.24 224.5 296.119ZM250.5 308.619C250.5 322.452 250.592 323.119 252.5 323.119C254.28 323.119 254.5 322.452 254.5 317.056V310.992L257.75 311.306C260.588 311.579 261.406 312.38 264.203 317.619C266.56 322.034 267.881 323.528 269.203 323.274C271.948 322.747 271.935 322.623 268.515 316.645L265.315 311.052L267.908 309.013C269.814 307.514 270.5 306.049 270.5 303.481C270.5 296.509 266.888 294.119 256.351 294.119H250.5V308.619ZM279.266 297.037C276.033 299.925 276 300.047 276 309.014C276 317.395 276.191 318.265 278.554 320.627C283.951 326.025 294.236 324.389 297.036 317.687C300.104 310.343 298.241 299.152 293.383 295.75C289.52 293.044 283.078 293.631 279.266 297.037ZM314.5 308.619V323.119H321.55C333.27 323.119 336.5 319.943 336.5 308.42C336.5 298.303 331.848 294.119 320.599 294.119H314.5V308.619ZM342.5 308.619V323.119H352C359.651 323.119 361.5 322.836 361.5 321.663C361.5 320.549 359.796 320.138 354.25 319.913L347 319.619V315.119V310.619L353.25 310.321C357.809 310.104 359.5 309.644 359.5 308.619C359.5 307.594 357.809 307.134 353.25 306.917L347 306.619L346.693 302.369L346.385 298.119H353.943C360.833 298.119 361.5 297.943 361.5 296.119C361.5 294.259 360.833 294.119 352 294.119H342.5V308.619ZM369.135 296.192C367.12 297.776 366.5 299.152 366.5 302.037C366.5 306.703 368.462 308.622 375.317 310.657C381.571 312.515 383.574 315.275 380.85 318.285C379.419 319.866 378.201 320.175 375.02 319.761C372.809 319.474 369.875 319.099 368.5 318.929C364.357 318.415 365.488 321.44 370 322.943C375.607 324.81 381.468 323.857 384.248 320.625C388.92 315.194 385.764 309.399 376.5 306.4C369.964 304.284 368.661 301.37 372.984 298.537C375.213 297.077 376.167 297.002 379.566 298.021C385.325 299.746 388.002 297.58 382.953 295.28C378.83 293.401 372.119 293.844 369.135 296.192ZM392.167 294.786C391.8 295.152 391.5 301.677 391.5 309.286C391.5 323.105 391.502 323.119 393.83 323.119C396.113 323.119 396.165 322.9 396.393 312.215C396.522 306.218 396.323 299.693 395.952 297.715C395.328 294.387 393.771 293.182 392.167 294.786ZM407.388 295.619C403.773 297.584 401.987 302.455 402.07 310.13C402.182 320.41 406.741 325.021 415.617 323.83C421.808 323 424.5 319.903 424.5 313.611C424.5 310.774 424.313 308.265 424.084 308.036C423.855 307.807 421.356 307.777 418.53 307.969C414.397 308.251 413.455 308.642 413.715 309.969C413.94 311.123 414.858 311.522 416.769 311.297C419.267 311.003 419.5 311.263 419.5 314.347C419.5 318.591 417.991 320.119 413.8 320.119C408.442 320.119 406.5 317.309 406.5 309.553C406.5 301.876 407.37 299.83 411.332 298.189C413.689 297.212 414.913 297.265 417.789 298.466C421.37 299.963 422.5 299.758 422.5 297.613C422.5 294.411 412.129 293.042 407.388 295.619ZM430.5 308.619C430.5 322.366 430.602 323.119 432.465 323.119C434.271 323.119 434.453 322.295 434.715 312.944L435 302.769L441.48 312.925C447.74 322.737 449.659 324.757 451.59 323.563C452.091 323.254 452.5 316.503 452.5 308.56C452.5 294.866 452.398 294.119 450.533 294.119C448.711 294.119 448.545 294.943 448.283 305.243L448 316.367L441.029 305.243C431.264 289.661 430.5 289.906 430.5 308.619ZM462.821 295.308C461.623 295.887 460.106 297.657 459.45 299.24C457.87 303.054 459.689 307.587 463.336 308.925C464.801 309.463 467.8 310.53 470 311.297C473.141 312.391 474.067 313.259 474.31 315.337C474.844 319.902 469.528 321.163 460.75 318.554C459.049 318.049 458.5 318.292 458.5 319.553C458.5 322.043 465.085 324.426 470.332 323.834C475.932 323.203 478.9 320.361 478.9 315.627C478.9 311.121 476.939 309.198 469.749 306.654C464.826 304.911 463.955 304.224 463.684 301.869C463.433 299.691 463.9 298.917 465.933 298.144C468.659 297.108 474.174 297.783 475.09 299.264C475.812 300.433 477.5 299.351 477.5 297.72C477.5 294.654 467.554 293.019 462.821 295.308ZM282.556 299.063C278.833 302.786 278.541 314.296 282.07 318.197C284.065 320.4 288.307 320.712 290.864 318.842C293.986 316.56 294.907 308.471 292.893 301.021C292.443 299.355 288.465 297.119 285.953 297.119C285.154 297.119 283.625 297.994 282.556 299.063ZM118.898 299.524C118.602 300.296 118.503 302.434 118.68 304.274C118.952 307.122 119.426 307.668 121.871 307.947C128.903 308.751 132.995 305.05 130.048 300.552C128.75 298.57 127.618 298.119 123.946 298.119C120.996 298.119 119.251 298.605 118.898 299.524ZM179.5 303.119V308.119H183.566C189.11 308.119 191.5 306.662 191.5 303.284C191.5 299.35 189.784 298.119 184.3 298.119H179.5V303.119ZM254.5 303.249V308.379L258.999 307.872C264.058 307.302 266.5 305.738 266.5 303.068C266.5 299.974 263.662 298.119 258.929 298.119H254.5V303.249ZM318.716 308.869L319 319.619L323.24 319.533C330.328 319.39 333.659 314.111 332.056 305.563C331.073 300.328 328.376 298.119 322.966 298.119H318.432L318.716 308.869Z" fill="black"/>
</g>
</svg>
